<svg version="1.1" id="Layer_1" xmlns="http://www.w3.org/2000/svg" xmlns:xlink="http://www.w3.org/1999/xlink" x="0px" y="0px"
	 width="100%" viewBox="0 0 512 512" enable-background="new 0 0 512 512" xml:space="preserve">
<path fill="#000000" opacity="1.000000" stroke="none" 
	d="
M242.269699,512.711853 
	C163.035309,513.000000 84.070595,512.978027 5.106035,513.079346 
	C1.914652,513.083435 0.890500,512.751648 0.893164,509.109406 
	C1.016110,341.018005 1.017437,172.926483 0.887798,4.835094 
	C0.884901,1.079101 2.085296,0.925949 5.161502,0.929723 
	C78.795151,1.020041 152.428925,1.000000 226.531342,1.000000 
	C228.304550,4.655179 225.440826,4.789020 223.266296,5.198728 
	C209.994965,7.699233 196.911087,10.833488 184.110764,15.238877 
	C157.279816,24.473063 133.588776,38.885540 112.167336,57.388611 
	C90.413155,76.179085 73.499878,98.693695 60.657333,124.191299 
	C48.952240,147.430603 41.753986,172.180756 39.165642,198.144348 
	C35.483765,235.077087 39.964054,270.904694 54.120071,305.363373 
	C63.440891,328.052155 76.323929,348.457886 92.481087,366.958801 
	C112.068703,389.387787 135.411880,406.816162 162.017639,419.755341 
	C184.641434,430.757996 208.655121,437.499298 233.796219,439.835907 
	C242.818939,440.674500 244.220810,442.110535 244.241959,451.316071 
	C244.282547,468.981873 244.274902,486.647858 244.235229,504.313690 
	C244.228958,507.110962 244.609940,510.037079 242.269699,512.711853 
z"/>
<path fill="#000000" opacity="1.000000" stroke="none" 
	d="
M286.778015,1.305705 
	C360.967804,1.000000 434.935669,1.023980 508.903320,0.918956 
	C512.114685,0.914397 513.108459,1.277080 513.105835,4.900055 
	C512.984070,172.993500 512.982178,341.087036 513.113586,509.180481 
	C513.116516,512.968567 511.867035,513.070251 508.822845,513.067322 
	C421.194397,512.983948 333.565857,513.000000 245.468658,513.000000 
	C243.159958,510.111176 245.621292,508.732910 247.216019,507.291290 
	C249.663849,505.078461 252.715378,503.640961 255.589355,501.325104 
	C266.971802,493.438965 277.768951,485.393982 288.630737,477.440002 
	C311.052612,461.020630 333.126923,444.142731 354.774872,426.714783 
	C371.364227,413.359314 387.556000,399.552094 403.379028,385.273773 
	C419.706604,370.540131 433.857178,354.160217 445.284576,335.398926 
	C460.307434,310.734680 469.624207,283.970367 473.699951,255.485199 
	C479.501587,214.937790 475.134735,175.457184 459.460358,137.469391 
	C450.304840,115.280411 437.406738,95.421753 421.696320,77.244652 
	C402.673279,55.234802 379.862366,38.227016 354.054596,25.242815 
	C334.310364,15.309241 313.276794,8.970739 291.459808,5.302553 
	C289.249268,4.930882 286.525665,5.046469 286.778015,1.305705 
z"/>
<path fill="#FDAE02" opacity="1.000000" stroke="none" 
	d="
M286.531342,1.000000 
	C285.974976,3.218828 287.811768,2.851292 288.878082,2.972597 
	C314.003174,5.830812 337.511566,14.018816 359.806549,25.523382 
	C375.451050,33.596191 389.724609,43.832329 403.099091,55.440311 
	C425.563293,74.937393 443.021576,98.152634 456.157715,124.653763 
	C465.339508,143.177399 471.277527,162.792816 475.126892,183.156204 
	C478.762360,202.387756 478.836365,221.767639 477.751862,241.038193 
	C476.508911,263.124542 471.049744,284.572266 462.939423,305.222565 
	C454.813049,325.913635 443.582245,344.863983 429.418152,361.947479 
	C418.858612,374.683502 406.646332,385.820801 394.079437,396.604248 
	C386.846100,402.811005 379.617523,409.025574 372.373871,415.224243 
	C360.321747,425.537842 347.854370,435.325745 335.355896,445.072296 
	C323.650482,454.200470 311.786194,463.129425 299.864624,471.974640 
	C285.896362,482.338379 271.790619,492.516846 257.436127,502.924103 
	C254.323486,501.591248 254.803925,498.838440 254.750763,496.442596 
	C254.540161,486.952698 254.665405,477.459106 254.662048,467.966980 
	C254.651962,439.490051 254.650482,411.013092 254.666718,382.536163 
	C254.668518,379.375519 254.539780,376.204315 255.285553,372.660034 
	C256.728790,368.874756 259.692078,368.887787 262.528534,368.804932 
	C284.374634,368.166931 305.027405,362.746246 324.329254,352.640533 
	C350.013733,339.193115 370.207245,319.941223 384.653687,294.639893 
	C399.478058,268.676605 405.789886,240.708389 403.536041,211.134293 
	C400.949432,177.193710 388.045105,147.434448 364.680206,122.301941 
	C345.586884,101.764206 322.730591,87.634995 295.713715,80.257561 
	C285.254395,77.401466 274.603455,75.581940 263.734009,75.226814 
	C260.935333,75.135368 257.976532,75.479630 255.753326,72.439590 
	C254.514755,69.673218 254.698593,67.147385 254.690948,64.669380 
	C254.634506,46.376675 254.614716,28.083652 254.711761,9.791241 
	C254.726334,7.042686 254.133530,4.071774 256.656982,1.354705 
	C266.687561,1.000000 276.375122,1.000000 286.531342,1.000000 
z"/>
<path fill="#FDCB02" opacity="1.000000" stroke="none" 
	d="
M256.531342,1.000000 
	C256.994507,24.568346 256.988983,48.136692 256.973389,72.147934 
	C256.904541,72.847321 256.845764,73.103813 256.539795,73.666565 
	C251.325668,76.502151 245.837784,75.334023 240.631790,75.934990 
	C213.473785,79.070091 189.014374,88.797729 167.552109,105.551262 
	C135.363373,130.677917 116.178329,163.582275 111.220802,204.229996 
	C106.474068,243.149368 115.836227,278.810699 139.417542,310.039062 
	C164.322708,343.020569 197.745590,362.253448 238.883682,367.944763 
	C244.485382,368.719757 250.199066,367.916382 256.000854,369.806061 
	C256.483948,370.241241 256.646851,370.447540 256.889130,371.040039 
	C256.999115,414.995880 257.029785,458.565460 257.094055,502.603790 
	C252.861664,506.218201 248.595612,509.363922 244.664764,512.754761 
	C244.250000,513.000000 243.500000,513.000000 242.375000,513.000000 
	C242.000000,491.179901 241.951675,469.359558 242.055191,447.539978 
	C242.069733,444.474091 241.846008,443.161652 237.997131,442.832306 
	C219.848953,441.279541 201.984360,437.660736 184.778214,431.807648 
	C162.444824,424.210358 141.872116,412.997620 123.082420,398.611816 
	C113.248802,391.083038 103.888069,383.022614 95.486588,373.932465 
	C83.193733,360.632019 72.557312,346.139404 63.604473,330.319489 
	C53.568810,312.586212 46.448521,293.792786 41.628582,274.107239 
	C38.328537,260.629242 35.927353,246.964203 35.995918,232.991913 
	C36.021996,227.677948 36.097832,222.361633 35.983192,217.050018 
	C35.462444,192.921616 40.588257,169.793945 48.414928,147.169601 
	C56.659569,123.337044 69.257645,102.000984 85.027176,82.330002 
	C103.014648,59.892342 124.759499,42.113987 149.681396,28.066711 
	C171.158218,15.961258 194.169296,8.223137 218.407242,3.755149 
	C221.425018,3.198856 225.143326,4.548877 227.343231,1.326248 
	C236.687561,1.000000 246.375122,1.000000 256.531342,1.000000 
z"/>
<path fill="#D8D8D7" opacity="1.000000" stroke="none" 
	d="
M256.963379,72.707626 
	C276.793304,73.017960 295.997437,76.506721 314.384979,84.148598 
	C375.789978,109.668541 412.842987,172.934784 405.176392,239.237442 
	C397.215027,308.089722 343.475433,361.846344 274.340088,370.234924 
	C268.857513,370.900177 263.374237,370.954468 257.428101,371.331848 
	C256.968475,371.426270 256.965546,371.188782 256.984955,371.071655 
	C255.420914,369.749603 254.835678,368.083801 254.816040,366.168274 
	C254.736237,358.381836 254.222534,350.588348 255.358551,342.417664 
	C256.716797,339.208649 259.217194,338.946259 261.764496,338.823059 
	C293.124176,337.306244 319.818512,325.290527 341.515869,302.673279 
	C359.080902,284.363586 369.527039,262.470062 372.831421,237.216782 
	C375.780212,214.681030 372.565796,193.024277 362.966919,172.520645 
	C352.601959,150.380630 336.656708,133.145706 315.448883,120.789284 
	C298.851898,111.119316 280.917480,106.274185 261.857269,105.192039 
	C259.657623,105.067154 257.526001,104.840263 255.810608,102.564972 
	C253.871323,93.431686 254.665756,84.639023 255.105453,75.855362 
	C255.148758,74.990288 255.701981,74.324364 256.660400,73.395844 
	C257.005402,73.054222 256.963440,72.824425 256.963379,72.707626 
z"/>
<path fill="#E7E7E6" opacity="1.000000" stroke="none" 
	d="
M256.597961,340.491669 
	C257.025269,350.756927 257.015259,360.390015 257.004822,370.488800 
	C223.434586,371.458313 193.089218,361.366547 166.902939,340.787231 
	C121.237312,304.899506 101.032845,257.194763 109.734901,199.871078 
	C118.725204,140.648590 153.703659,100.941841 209.967911,80.403290 
	C224.755737,75.005173 240.268387,72.677254 256.544800,72.977501 
	C257.010834,82.689873 257.016235,92.325516 256.869751,102.781258 
	C252.270767,106.631882 247.035217,105.291710 242.207535,106.015068 
	C204.039734,111.733887 175.082184,130.972794 155.491028,164.224518 
	C143.082535,185.285217 138.379654,208.258575 140.481918,232.353867 
	C142.491058,255.381699 150.685364,276.313568 165.299347,294.505951 
	C183.899918,317.661072 207.892883,331.782318 237.006104,337.254059 
	C241.403351,338.080536 245.847748,338.819977 250.371780,338.791748 
	C252.343353,338.779419 254.401382,338.592529 256.597961,340.491669 
z"/>
<path fill="#F7F0EB" opacity="1.000000" stroke="none" 
	d="
M257.022461,102.924698 
	C292.656189,103.083771 322.430054,116.654213 346.219177,142.899445 
	C361.897491,160.196487 371.482910,180.730286 374.852325,203.908722 
	C378.466827,228.773239 375.194977,252.794128 363.742401,275.227509 
	C350.075989,301.997314 329.299103,321.405121 301.259308,332.746796 
	C287.369568,338.364990 272.966431,341.285004 257.496277,341.092163 
	C257.035278,341.123840 257.014191,341.041382 257.004486,340.999939 
	C255.415268,339.738800 254.846420,338.060333 254.817734,336.141663 
	C254.586533,320.667999 254.491791,305.194366 254.880630,289.721771 
	C254.905655,288.725830 255.134979,287.740906 255.835602,286.417664 
	C258.163727,283.527802 261.119568,283.760712 263.899261,283.676422 
	C267.822418,283.557343 269.624695,281.665802 269.634766,277.768982 
	C269.694336,254.656723 269.676697,231.544571 269.646759,208.432297 
	C269.641388,204.278702 267.745972,202.311737 263.600891,202.314484 
	C261.447571,202.315903 259.266052,202.228409 256.925293,200.854477 
	C254.382980,197.883545 254.690872,194.810593 255.394257,191.314178 
	C256.812988,187.953537 259.776184,188.015167 262.218201,187.217255 
	C268.821808,185.059555 272.350281,180.924576 272.683563,174.813492 
	C273.044220,168.200104 270.011261,163.699951 263.665802,161.640274 
	C260.842316,160.723801 257.860199,160.196075 255.669983,157.310165 
	C254.813324,155.526489 254.769485,154.019150 254.753006,152.537399 
	C254.592712,138.127823 254.603745,123.717644 254.751450,109.308235 
	C254.771408,107.360237 254.636795,105.274460 256.647949,103.394775 
	C256.993530,103.047485 257.012451,102.965538 257.022461,102.924698 
z"/>
<path fill="#FFFBF5" opacity="1.000000" stroke="none" 
	d="
M256.840790,189.937317 
	C256.932953,193.128479 256.941650,195.970810 256.761505,199.647522 
	C255.158234,202.318573 253.065948,202.106476 251.107880,202.276428 
	C245.137497,202.794586 244.400650,203.503342 244.356750,209.623795 
	C244.268677,221.905457 244.330276,234.187820 244.327377,246.469894 
	C244.325073,256.262360 244.283356,266.055054 244.345184,275.847260 
	C244.388260,282.667755 244.881912,283.153290 251.566910,283.741669 
	C253.045609,283.871796 254.571320,283.810516 256.411865,285.418457 
	C256.968506,304.081512 256.983307,322.056091 256.996460,340.494598 
	C193.665588,342.106201 141.454620,290.360474 137.953735,229.719131 
	C133.695038,155.950821 193.900696,102.108093 256.530273,103.030594 
	C256.988190,121.025925 256.982880,139.004364 256.849060,157.777588 
	C255.030777,160.378601 252.615082,160.634262 250.480377,161.486237 
	C243.891907,164.115738 241.013123,168.411636 241.263840,175.268814 
	C241.472168,180.966736 244.726318,184.825638 251.041611,187.020065 
	C252.603821,187.562912 254.310272,187.676041 256.030518,188.808624 
	C256.464264,189.210556 256.610809,189.399521 256.840790,189.937317 
z"/>
<path fill="#5A69E4" opacity="1.000000" stroke="none" 
	d="
M256.958679,199.750671 
	C260.911438,199.719940 264.902771,199.871780 268.890106,199.800095 
	C271.241974,199.757828 272.084991,200.643921 272.080353,203.001526 
	C272.028107,229.616623 272.027100,256.231873 272.081207,282.846954 
	C272.086060,285.236053 271.200562,286.068298 268.865570,285.993378 
	C265.210297,285.876221 261.547729,285.985443 257.421021,286.052856 
	C256.953735,286.106903 257.055542,285.981842 257.068787,285.902344 
	C254.784561,284.317688 254.758698,281.913116 254.745026,279.592560 
	C254.601028,255.170532 254.601105,230.748184 254.752228,206.326233 
	C254.764328,204.372986 254.644516,202.280685 256.663147,200.385803 
	C257.016907,200.030075 256.995544,199.839294 256.958679,199.750671 
z"/>
<path fill="#5B6AE4" opacity="1.000000" stroke="none" 
	d="
M257.010376,157.974228 
	C258.751678,158.177917 260.570740,158.334503 262.333984,158.736115 
	C270.535706,160.604095 275.162628,165.860107 275.311096,173.367798 
	C275.466156,181.208191 271.004517,187.126251 263.126709,189.330750 
	C261.398468,189.814362 259.555634,189.888504 257.344910,190.218658 
	C256.924286,190.286133 257.005920,190.125244 257.018066,190.035858 
	C255.652954,188.859680 254.939789,187.447495 254.867294,185.686539 
	C254.548065,177.931320 254.532608,170.176208 254.882172,162.422409 
	C254.942276,161.089111 255.221771,159.792755 256.707275,158.530182 
	C257.091431,158.205185 257.062439,158.039978 257.010376,157.974228 
z"/>
<path fill="#7982E9" opacity="1.000000" stroke="none" 
	d="
M256.552429,199.964569 
	C257.027466,228.323135 257.038025,256.616180 257.065308,285.366028 
	C241.943558,286.571899 241.943481,286.571899 241.943558,271.838440 
	C241.943695,249.580093 242.044815,227.320877 241.853317,205.064178 
	C241.817856,200.942810 242.937286,199.338806 247.125290,199.789764 
	C250.082474,200.108200 253.098297,199.882065 256.552429,199.964569 
z"/>
<path fill="#7A83E9" opacity="1.000000" stroke="none" 
	d="
M256.680908,158.150299 
	C257.064697,168.475616 257.037994,178.746048 257.020752,189.481476 
	C246.445755,190.089691 239.118988,184.118790 238.725830,175.029404 
	C238.305405,165.309128 244.739243,159.099197 256.680908,158.150299 
z"/>
</svg>