<svg version="1.1" id="Layer_1" xmlns="http://www.w3.org/2000/svg" xmlns:xlink="http://www.w3.org/1999/xlink" x="0px" y="0px"
	 width="100%" viewBox="0 0 500 500" enable-background="new 0 0 500 500" xml:space="preserve">
<path fill="#FFB800" opacity="1.000000" stroke="none" 
	d="
M276.000000,501.000000 
	C184.000015,501.000000 92.500046,501.000000 1.000049,501.000000 
	C1.000033,334.333405 1.000033,167.666794 1.000016,1.000139 
	C167.666565,1.000092 334.333130,1.000092 500.999756,1.000046 
	C500.999847,167.666519 500.999847,334.333038 500.999939,500.999786 
	C426.166656,501.000000 351.333344,501.000000 276.000000,501.000000 
M399.028320,109.051331 
	C398.668823,104.881851 399.811981,99.031998 397.540436,97.000687 
	C395.116943,94.833549 389.467224,96.274300 385.078644,95.203255 
	C385.078644,91.100197 385.078644,86.997139 385.078644,82.921875 
	C297.082855,82.921875 209.743179,82.921875 122.567856,82.921875 
	C122.567856,93.777931 122.567856,104.177002 122.567856,115.060432 
	C127.307014,115.060432 131.621338,115.060432 135.935028,115.982483 
	C135.935028,120.037178 135.935028,124.091881 135.935028,128.263962 
	C141.142593,128.621552 145.552521,128.924362 149.887695,130.126450 
	C149.876740,131.124924 149.849243,132.123520 149.857361,133.121841 
	C149.938126,143.057129 148.842758,142.057892 158.560593,142.065689 
	C199.336121,142.098434 240.111710,142.089905 281.043610,143.010056 
	C281.043610,150.919876 281.043610,158.829712 281.043610,167.234650 
	C227.721771,167.234650 175.084518,167.234650 122.398956,167.234650 
	C122.398956,177.996643 122.398956,188.242264 122.398956,199.168427 
	C127.088165,199.168427 131.530365,199.168427 135.972809,200.077423 
	C135.972809,204.155685 135.972809,208.233948 135.972809,212.494278 
	C141.126999,212.786377 145.549744,213.037033 149.891861,214.178955 
	C149.879395,215.177750 149.849472,216.176697 149.857162,217.175339 
	C149.933365,227.066010 148.861221,226.052765 158.619217,226.067047 
	C196.078979,226.121887 233.538773,226.136841 270.902924,226.838272 
	C266.435425,235.274628 259.788055,241.652771 250.912689,244.806061 
	C242.200470,247.901413 233.137787,251.096603 224.038406,251.806625 
	C199.489014,253.722275 174.838455,254.343872 150.227066,255.457520 
	C148.272095,255.545990 146.309616,255.469193 143.300095,255.469193 
	C143.990082,285.840332 143.766571,315.665497 145.664795,345.355042 
	C146.892700,364.560425 154.317764,382.286224 167.810455,396.679291 
	C173.212692,402.442017 179.356445,407.509644 185.212021,413.567688 
	C188.428604,416.785706 191.645187,420.003723 195.043213,423.865173 
	C204.612045,435.380402 217.054916,442.436951 231.148163,446.732330 
	C251.743561,453.009399 272.672180,453.409393 293.781158,449.770416 
	C310.348663,446.914368 325.420502,440.777557 338.018250,429.395172 
	C359.294769,410.171448 364.895782,384.764618 365.810791,357.648529 
	C365.848450,356.532990 363.685730,354.545532 362.336273,354.337280 
	C358.917480,353.809723 355.378021,354.064178 351.894836,353.073090 
	C352.303864,340.891632 352.303864,340.891907 340.132080,340.855164 
	C339.472839,340.853180 338.813568,340.840729 338.064392,339.990204 
	C338.250671,335.750061 338.436951,331.509949 338.619049,327.364655 
	C324.748260,327.364655 311.509247,327.364655 298.400421,327.364655 
	C297.916901,332.872437 297.733124,338.042084 296.968140,343.124207 
	C294.294281,360.887787 287.653717,376.478516 270.090485,384.184296 
	C252.781616,391.778503 234.881912,391.627869 217.001129,384.591492 
	C216.332108,382.017395 215.573486,379.462830 215.008301,376.866119 
	C210.711517,357.125580 212.459290,337.089142 212.125046,317.153809 
	C212.071091,313.936157 214.253952,314.090546 216.526825,313.892670 
	C234.724426,312.308472 253.011017,311.327087 271.080048,308.800201 
	C290.159912,306.131989 307.771515,299.260651 322.044830,285.534515 
	C337.369690,270.797119 343.516602,251.785110 346.731659,231.601273 
	C347.479950,226.903625 349.210510,225.968781 353.396790,226.007751 
	C371.053040,226.172165 388.712799,225.972153 406.368713,226.154037 
	C410.520294,226.196808 412.599457,225.310150 412.212128,220.658203 
	C411.853973,216.356903 412.136719,212.002258 412.136749,207.671112 
	C412.136902,194.554688 412.136810,194.554688 398.880280,193.113358 
	C398.880280,189.200180 398.880280,185.287003 398.880280,180.868652 
	C393.783356,180.868652 389.502686,180.868652 385.073303,179.963867 
	C385.073303,175.724121 385.073303,171.484390 385.073303,166.832458 
	C372.903961,166.832458 361.470398,166.832458 350.033264,165.916702 
	C350.033081,160.437531 350.031250,154.958344 350.033142,149.479172 
	C350.035675,142.083145 350.036896,142.078964 357.205048,142.077606 
	C373.808624,142.074432 390.413116,141.982040 407.015106,142.145065 
	C410.874176,142.182953 412.432465,141.038666 412.200653,137.043167 
	C411.922241,132.244324 412.136353,127.416924 412.136444,122.601883 
	C412.136688,109.814621 412.136505,109.814621 399.028320,109.051331 
z"/>
<path fill="#FEFEFD" opacity="1.000000" stroke="none" 
	d="
M217.040527,385.440033 
	C234.881912,391.627869 252.781616,391.778503 270.090485,384.184296 
	C287.653717,376.478516 294.294281,360.887787 296.968140,343.124207 
	C297.733124,338.042084 297.916901,332.872437 298.400421,327.364655 
	C311.509247,327.364655 324.748260,327.364655 338.619049,327.364655 
	C338.436951,331.509949 338.250671,335.750061 338.006042,340.831085 
	C337.376007,345.802643 336.804382,349.933289 336.111694,354.439331 
	C335.665070,356.276550 335.375000,357.747314 335.008698,359.198853 
	C329.033051,382.876556 317.066742,402.537964 294.399933,413.138428 
	C260.659210,428.917755 226.203094,428.594299 191.765976,414.652710 
	C189.670883,413.804504 187.368576,413.468140 185.162674,412.893646 
	C179.356445,407.509644 173.212692,402.442017 167.810455,396.679291 
	C154.317764,382.286224 146.892700,364.560425 145.664795,345.355042 
	C143.766571,315.665497 143.990082,285.840332 143.300095,255.469193 
	C146.309616,255.469193 148.272095,255.545990 150.227066,255.457520 
	C174.838455,254.343872 199.489014,253.722275 224.038406,251.806625 
	C233.137787,251.096603 242.200470,247.901413 250.912689,244.806061 
	C259.788055,241.652771 266.435425,235.274628 271.225861,226.257233 
	C273.056366,221.431549 274.563904,217.186905 276.317017,212.654297 
	C277.480469,208.056244 278.398376,203.746170 279.375092,199.159958 
	C235.781189,199.159958 192.883438,199.159958 149.526733,199.089081 
	C144.702698,199.068268 140.337631,199.118347 135.972549,199.168427 
	C131.530365,199.168427 127.088165,199.168427 122.398956,199.168427 
	C122.398956,188.242264 122.398956,177.996643 122.398956,167.234650 
	C175.084518,167.234650 227.721771,167.234650 281.043610,167.234650 
	C281.043610,158.829712 281.043610,150.919876 281.044128,142.082520 
	C280.984619,137.015656 280.924622,132.876343 280.948730,128.303131 
	C281.032837,123.612511 281.032837,119.355766 281.032837,114.840599 
	C262.546265,114.840599 244.622238,114.815666 226.698303,114.846565 
	C201.111847,114.890663 175.525467,114.975647 149.486328,114.949097 
	C144.667603,114.923500 140.301636,114.991966 135.935654,115.060432 
	C131.621338,115.060432 127.307014,115.060432 122.567856,115.060432 
	C122.567856,104.177002 122.567856,93.777931 122.567856,82.921875 
	C209.743179,82.921875 297.082855,82.921875 385.078644,82.921875 
	C385.078644,86.997139 385.078644,91.100197 385.078308,96.121323 
	C385.115326,101.648659 385.152649,106.257942 385.125732,111.310265 
	C385.596313,115.231133 383.244232,114.858437 381.034393,114.854095 
	C367.205170,114.826904 353.375885,114.840393 339.546600,114.840424 
	C334.104767,114.840431 328.662933,114.840439 323.103638,114.840439 
	C323.103638,132.454376 323.103638,149.525696 323.103638,166.847916 
	C327.619995,166.847916 331.910095,166.847916 336.647552,166.917648 
	C341.408875,166.935745 345.722839,166.884094 350.036804,166.832458 
	C361.470398,166.832458 372.903961,166.832458 385.073303,166.832458 
	C385.073303,171.484390 385.073303,175.724121 385.072205,180.888046 
	C385.117126,186.200241 385.163208,190.588242 385.134644,195.419952 
	C385.661407,199.251633 383.470581,199.029663 381.181824,199.023758 
	C363.690552,198.978653 346.199097,198.999039 328.707703,198.999054 
	C325.917999,198.999054 323.128296,198.999054 320.445740,198.999054 
	C319.560059,203.790176 318.844971,208.043411 317.981812,212.266388 
	C311.791748,242.550781 296.097534,265.119110 266.020630,275.858429 
	C251.193527,281.152649 235.787216,283.767395 220.148682,284.954651 
	C208.560303,285.834412 196.941406,286.312256 184.487473,287.017181 
	C185.034912,305.304504 184.752487,323.653076 186.384933,341.829651 
	C187.752045,357.051971 193.540070,370.879974 207.014618,380.019012 
	C207.022690,379.978027 206.941147,379.959900 207.041016,380.194763 
	C207.436508,380.559570 207.732162,380.689484 208.268341,381.081573 
	C211.352737,382.709198 214.196625,384.074615 217.040527,385.440033 
z"/>
<path fill="#B28000" opacity="1.000000" stroke="none" 
	d="
M217.020828,385.015747 
	C214.196625,384.074615 211.352737,382.709198 208.080658,380.944702 
	C207.386261,380.385773 207.149139,380.190521 206.941147,379.959900 
	C206.941147,379.959900 207.022690,379.978027 207.017166,379.637177 
	C204.657578,371.359039 200.896378,363.535492 200.243896,355.460693 
	C198.906845,338.914307 199.364487,322.228821 198.797852,305.610352 
	C198.644760,301.120941 200.182800,299.943726 204.505249,300.016663 
	C223.347183,300.334717 242.052643,298.718201 260.532074,294.945007 
	C278.071075,291.363861 294.463806,285.176483 307.772278,272.679474 
	C323.236115,258.158539 329.658966,239.241501 332.889038,219.004807 
	C333.649750,214.238770 335.323212,212.721802 340.182770,212.801041 
	C358.158478,213.094101 376.142548,212.833969 394.121735,212.984390 
	C397.832672,213.015442 399.216248,211.812561 398.967621,208.105270 
	C398.678528,203.795151 398.778137,199.458969 398.766174,194.860962 
	C398.868622,194.407410 398.913971,194.226990 398.959320,194.046555 
	C412.136810,194.554688 412.136902,194.554688 412.136749,207.671112 
	C412.136719,212.002258 411.853973,216.356903 412.212128,220.658203 
	C412.599457,225.310150 410.520294,226.196808 406.368713,226.154037 
	C388.712799,225.972153 371.053040,226.172165 353.396790,226.007751 
	C349.210510,225.968781 347.479950,226.903625 346.731659,231.601273 
	C343.516602,251.785110 337.369690,270.797119 322.044830,285.534515 
	C307.771515,299.260651 290.159912,306.131989 271.080048,308.800201 
	C253.011017,311.327087 234.724426,312.308472 216.526825,313.892670 
	C214.253952,314.090546 212.071091,313.936157 212.125046,317.153809 
	C212.459290,337.089142 210.711517,357.125580 215.008301,376.866119 
	C215.573486,379.462830 216.332108,382.017395 217.020828,385.015747 
z"/>
<path fill="#B28000" opacity="1.000000" stroke="none" 
	d="
M351.886871,354.005432 
	C355.378021,354.064178 358.917480,353.809723 362.336273,354.337280 
	C363.685730,354.545532 365.848450,356.532990 365.810791,357.648529 
	C364.895782,384.764618 359.294769,410.171448 338.018250,429.395172 
	C325.420502,440.777557 310.348663,446.914368 293.781158,449.770416 
	C272.672180,453.409393 251.743561,453.009399 231.148163,446.732330 
	C217.054916,442.436951 204.612045,435.380402 195.310822,423.518127 
	C196.043808,423.342804 196.542679,423.454865 196.969742,423.694763 
	C229.917923,442.206879 264.466827,442.616699 299.215271,430.875061 
	C334.866241,418.828461 350.759247,383.905182 351.152802,353.999512 
	C351.397491,354.001038 351.886871,354.005432 351.886871,354.005432 
z"/>
<path fill="#5B4202" opacity="1.000000" stroke="none" 
	d="
M350.908112,353.997986 
	C350.759247,383.905182 334.866241,418.828461 299.215271,430.875061 
	C264.466827,442.616699 229.917923,442.206879 196.969742,423.694763 
	C196.542679,423.454865 196.043808,423.342804 195.220123,423.196411 
	C191.645187,420.003723 188.428604,416.785706 185.187347,413.230652 
	C187.368576,413.468140 189.670883,413.804504 191.765976,414.652710 
	C226.203094,428.594299 260.659210,428.917755 294.399933,413.138428 
	C317.066742,402.537964 329.033051,382.876556 335.008698,359.198853 
	C335.375000,357.747314 335.665070,356.276550 336.563232,354.437927 
	C341.726562,354.040100 346.317352,354.019043 350.908112,353.997986 
z"/>
<path fill="#B28000" opacity="1.000000" stroke="none" 
	d="
M280.864655,128.737015 
	C280.924622,132.876343 280.984619,137.015656 280.965942,141.625732 
	C240.111710,142.089905 199.336121,142.098434 158.560593,142.065689 
	C148.842758,142.057892 149.938126,143.057129 149.857361,133.121841 
	C149.849243,132.123520 149.876740,131.124924 149.953583,129.456741 
	C150.019455,128.787033 150.108231,128.353180 150.554565,128.482239 
	C194.288803,128.653214 237.576736,128.695114 280.864655,128.737015 
z"/>
<path fill="#B28000" opacity="1.000000" stroke="none" 
	d="
M276.071472,212.942276 
	C274.563904,217.186905 273.056366,221.431549 271.273682,225.921417 
	C233.538773,226.136841 196.078979,226.121887 158.619217,226.067047 
	C148.861221,226.052765 149.933365,227.066010 149.857162,217.175339 
	C149.849472,216.176697 149.879395,215.177750 149.932770,213.561554 
	C149.973663,212.944153 150.013016,212.603287 150.473511,212.695923 
	C192.646484,212.839813 234.358978,212.891052 276.071472,212.942276 
z"/>
<path fill="#B28000" opacity="1.000000" stroke="none" 
	d="
M350.035034,166.374573 
	C345.722839,166.884094 341.408875,166.935745 336.643372,166.459320 
	C336.191742,155.632095 336.468323,145.322403 336.075592,135.038239 
	C335.877472,129.850769 337.653595,128.596069 342.605804,128.679535 
	C359.544739,128.965042 376.492188,128.702087 393.434631,128.851105 
	C397.418274,128.886154 399.284546,127.751137 398.958435,123.490532 
	C398.617096,119.031357 398.700653,114.539658 398.754791,110.030243 
	C398.911102,109.998299 399.227661,109.958290 399.227661,109.958290 
	C412.136505,109.814621 412.136688,109.814621 412.136444,122.601883 
	C412.136353,127.416924 411.922241,132.244324 412.200653,137.043167 
	C412.432465,141.038666 410.874176,142.182953 407.015106,142.145065 
	C390.413116,141.982040 373.808624,142.074432 357.205048,142.077606 
	C350.036896,142.078964 350.035675,142.083145 350.033142,149.479172 
	C350.031250,154.958344 350.033081,160.437531 350.035034,166.374573 
z"/>
<path fill="#835F01" opacity="1.000000" stroke="none" 
	d="
M385.189972,110.867218 
	C385.152649,106.257942 385.115326,101.648659 385.151978,96.589691 
	C389.467224,96.274300 395.116943,94.833549 397.540436,97.000687 
	C399.811981,99.031998 398.668823,104.881851 399.127991,109.504807 
	C399.227661,109.958290 398.911102,109.998299 398.327759,110.009041 
	C393.559601,110.302261 389.374786,110.584740 385.189972,110.867218 
z"/>
<path fill="#835F00" opacity="1.000000" stroke="none" 
	d="
M135.935333,115.521454 
	C140.301636,114.991966 144.667603,114.923500 149.487244,115.408798 
	C149.996689,120.092766 150.052444,124.222969 150.108215,128.353180 
	C150.108231,128.353180 150.019455,128.787033 149.990967,129.007111 
	C145.552521,128.924362 141.142593,128.621552 135.935028,128.263962 
	C135.935028,124.091881 135.935028,120.037178 135.935333,115.521454 
z"/>
<path fill="#7C5A01" opacity="1.000000" stroke="none" 
	d="
M398.919800,193.579956 
	C398.913971,194.226990 398.868622,194.407410 398.329956,194.816681 
	C393.627533,195.022446 389.418396,194.999344 385.209290,194.976257 
	C385.163208,190.588242 385.117126,186.200241 385.146545,181.340439 
	C389.502686,180.868652 393.783356,180.868652 398.880280,180.868652 
	C398.880280,185.287003 398.880280,189.200180 398.919800,193.579956 
z"/>
<path fill="#7A5800" opacity="1.000000" stroke="none" 
	d="
M135.972687,199.622925 
	C140.337631,199.118347 144.702698,199.068268 149.524384,199.542084 
	C149.991684,204.245071 150.002350,208.424179 150.013016,212.603287 
	C150.013016,212.603287 149.973663,212.944153 149.973068,213.115906 
	C145.549744,213.037033 141.126999,212.786377 135.972809,212.494278 
	C135.972809,208.233948 135.972809,204.155685 135.972687,199.622925 
z"/>
<path fill="#805D02" opacity="1.000000" stroke="none" 
	d="
M351.152802,353.999512 
	C346.317352,354.019043 341.726562,354.040100 336.684265,354.062561 
	C336.804382,349.933289 337.376007,345.802643 338.050995,341.252563 
	C338.813568,340.840729 339.472839,340.853180 340.132080,340.855164 
	C352.303864,340.891907 352.303864,340.891632 351.890869,353.539246 
	C351.886871,354.005432 351.397491,354.001038 351.152802,353.999512 
z"/>
<path fill="#5B4202" opacity="1.000000" stroke="none" 
	d="
M385.134644,195.419952 
	C389.418396,194.999344 393.627533,195.022446 398.272827,195.089813 
	C398.778137,199.458969 398.678528,203.795151 398.967621,208.105270 
	C399.216248,211.812561 397.832672,213.015442 394.121735,212.984390 
	C376.142548,212.833969 358.158478,213.094101 340.182770,212.801041 
	C335.323212,212.721802 333.649750,214.238770 332.889038,219.004807 
	C329.658966,239.241501 323.236115,258.158539 307.772278,272.679474 
	C294.463806,285.176483 278.071075,291.363861 260.532074,294.945007 
	C242.052643,298.718201 223.347183,300.334717 204.505249,300.016663 
	C200.182800,299.943726 198.644760,301.120941 198.797852,305.610352 
	C199.364487,322.228821 198.906845,338.914307 200.243896,355.460693 
	C200.896378,363.535492 204.657578,371.359039 207.009094,379.678162 
	C193.540070,370.879974 187.752045,357.051971 186.384933,341.829651 
	C184.752487,323.653076 185.034912,305.304504 184.487473,287.017181 
	C196.941406,286.312256 208.560303,285.834412 220.148682,284.954651 
	C235.787216,283.767395 251.193527,281.152649 266.020630,275.858429 
	C296.097534,265.119110 311.791748,242.550781 317.981812,212.266388 
	C318.844971,208.043411 319.560059,203.790176 320.445740,198.999054 
	C323.128296,198.999054 325.917999,198.999054 328.707703,198.999054 
	C346.199097,198.999039 363.690552,198.978653 381.181824,199.023758 
	C383.470581,199.029663 385.661407,199.251633 385.134644,195.419952 
z"/>
<path fill="#594000" opacity="1.000000" stroke="none" 
	d="
M150.554550,128.482239 
	C150.052444,124.222969 149.996689,120.092766 149.939987,115.502861 
	C175.525467,114.975647 201.111847,114.890663 226.698303,114.846565 
	C244.622238,114.815666 262.546265,114.840599 281.032837,114.840599 
	C281.032837,119.355766 281.032837,123.612511 280.948730,128.303131 
	C237.576736,128.695114 194.288803,128.653214 150.554550,128.482239 
z"/>
<path fill="#594000" opacity="1.000000" stroke="none" 
	d="
M150.473511,212.695923 
	C150.002350,208.424179 149.991684,204.245071 149.983337,199.612961 
	C192.883438,199.159958 235.781189,199.159958 279.375092,199.159958 
	C278.398376,203.746170 277.480469,208.056244 276.317017,212.654297 
	C234.358978,212.891052 192.646484,212.839813 150.473511,212.695923 
z"/>
<path fill="#594000" opacity="1.000000" stroke="none" 
	d="
M385.125732,111.310265 
	C389.374786,110.584740 393.559601,110.302261 398.171448,110.040985 
	C398.700653,114.539658 398.617096,119.031357 398.958435,123.490532 
	C399.284546,127.751137 397.418274,128.886154 393.434631,128.851105 
	C376.492188,128.702087 359.544739,128.965042 342.605804,128.679535 
	C337.653595,128.596069 335.877472,129.850769 336.075592,135.038239 
	C336.468323,145.322403 336.191742,155.632095 336.195984,166.389587 
	C331.910095,166.847916 327.619995,166.847916 323.103638,166.847916 
	C323.103638,149.525696 323.103638,132.454376 323.103638,114.840439 
	C328.662933,114.840439 334.104767,114.840431 339.546600,114.840424 
	C353.375885,114.840393 367.205170,114.826904 381.034393,114.854095 
	C383.244232,114.858437 385.596313,115.231133 385.125732,111.310265 
z"/>
<path fill="#5B4202" opacity="1.000000" stroke="none" 
	d="
M207.041016,380.194763 
	C207.149139,380.190521 207.386261,380.385773 207.840149,380.682526 
	C207.732162,380.689484 207.436508,380.559570 207.041016,380.194763 
z"/>
</svg>